<?xml version="1.0" encoding="utf-8"?>
<!-- Generator: Adobe Illustrator 21.1.0, SVG Export Plug-In . SVG Version: 6.00 Build 0)  -->
<svg version="1.1" id="Layer_1" xmlns="http://www.w3.org/2000/svg" xmlns:xlink="http://www.w3.org/1999/xlink" x="0px" y="0px"
	 viewBox="0 0 215 215" style="enable-background:new 0 0 215 215;" xml:space="preserve">
<style type="text/css">
	.st0{fill:#0C4DA2;}
	.st1{fill:#FFFFFF;}
</style>
<g>
	<g>
		<g>
			<path class="st0" d="M108,211.5C50.9,211.5,4.5,165.1,4.5,108S50.9,4.5,108,4.5S211.5,50.9,211.5,108S165.1,211.5,108,211.5z"/>
			<path class="st0" d="M108,5c56.8,0,103,46.2,103,103s-46.2,103-103,103S5,164.8,5,108S51.2,5,108,5 M108,4C50.6,4,4,50.6,4,108
				s46.6,104,104,104s104-46.6,104-104S165.4,4,108,4L108,4z"/>
		</g>
		<g id="_x33_0_DAY">
			<g>
				<path class="st1" d="M75.9,90.1V90h8.9v0.1c-0.5,4.1,0.9,5.8,5.6,5.8c4.4,0,6-1.3,6-4.4v-0.1c0-3.3-1.2-5.1-6-5.1h-4v-6.5h4
					c3.5,0,4.4-1.6,4.4-4.2v-0.1c0-2.6-1.2-3.7-4.4-3.7c-2.3,0-5.3,0.3-4.8,5.5v0.1h-8.9v-0.1c-1.2-9.7,3.6-12.6,13.6-12.6
					c9.7,0,13.6,3.5,13.6,10.5v0.1c0,4-1.7,6.1-3.9,7.6c3.5,1.7,5.5,4.3,5.5,9.2v0.1c0,7-5,10.8-15.2,10.8
					C83,103,74.6,101.3,75.9,90.1z"/>
				<path class="st1" d="M139.1,79.7v8.1c0,10.9-3.9,15.1-14.6,15.1s-14.6-4.3-14.6-15.1v-8.1c0-10.9,3.9-15.1,14.6-15.1
					S139.1,68.9,139.1,79.7z M119.1,80.9v5.8c0,6.1,0.3,8.6,5.3,8.6s5.3-2.5,5.3-8.6v-5.8c0-6.1-0.3-8.6-5.3-8.6
					S119.1,74.8,119.1,80.9z"/>
			</g>
			<g>
				<path class="st1" d="M57.1,142.2v-5.5l3.5-1v-22.2l-3.5-1v-5.5h15c12.5,0,17.2,4.1,17.2,17.5v0.1c0,13.4-4.7,17.5-17.2,17.5
					H57.1z M69.1,135.4h3.3c7.7,0.1,8.1-4,8.1-10.7v-0.1c0-6.7-0.4-10.8-8.1-10.7h-3.3V135.4z"/>
				<path class="st1" d="M102.4,135.8l4,1.1v5.4H90.8v-5.5l3.3-1l9-28.6h10.3l9,28.6l3.3,1v5.5h-15.8v-5.4l4-1.1l-1.1-3.5h-9.3
					L102.4,135.8z M105.2,126.8h5.8l-2.9-11.2L105.2,126.8z"/>
				<path class="st1" d="M144.7,113.6l-3.7-1.1v-5.4h16.2v5.5l-3.5,1l-9.5,15.6v6.7l4,1.1v5.4h-16.5v-5.4l4-1.1v-6.7l-9.5-15.6
					l-3.5-1v-5.5h16.2v5.4l-3.7,1.1l4.7,8.8L144.7,113.6z"/>
			</g>
		</g>
	</g>
	<g>
		<path class="st1" d="M27.9,65.1c0.6-1.1,1.9-1.5,3-0.9s1.5,1.9,0.9,3s-1.9,1.5-3,0.9S27.4,66.2,27.9,65.1z"/>
		<path class="st1" d="M37.7,49.4c0.7,0.6,1.3,0.2,2.8-1.1c2.6-2.2,3.9-3.1,6.1-1.2c2.1,1.8,1.6,4.2-0.7,6.9
			c-1.2,1.4-2.5,2.5-3.8,3.1l-2.7-2.3l1.4-1.6l1.6,0.7c0.6-0.4,1.1-0.8,1.6-1.5c1.2-1.4,1.5-2.2,0.7-2.9c-0.8-0.7-1.4-0.1-3,1.2
			c-2.6,2.2-3.9,2.6-6,0.9c-1.9-1.6-1.3-4.1,0.9-6.6c1-1.2,2.1-2.2,3.6-2.8l2.7,2.3l-1.4,1.6l-1.6-0.7c-0.4,0.2-0.9,0.6-1.4,1.1
			C37.2,48.1,37,48.8,37.7,49.4z"/>
		<path class="st1" d="M52.8,43.5l1.3-0.6l1.2,1.5L51,48l-1.3-1.5l0.7-1l-4.1-10l2.8-2.4l9.1,5.8l1.1-0.5l1.3,1.5l-4.4,3.6l-1.2-1.5
			l0.9-1.2l-1.1-0.7l-2.6,2.1L52.8,43.5z M51.5,40.4l1.6-1.3l-3.4-2.4L51.5,40.4z"/>
		<path class="st1" d="M64.3,35.1l-4-6.8l-1.6,0.9l0.4,1.5l-1.8,1.1l-2-3.4l10.1-6l2,3.4L65.6,27l-1.2-1.1l-1.6,0.9l4,6.8l1.4-0.4
			l1,1.7l-5.1,3l-1-1.7L64.3,35.1z"/>
		<path class="st1" d="M74.7,32.1l-0.7-1.8l1.2-0.9l-3-7.4l-1.5,0.2l-0.7-1.8l5.5-2.3l0.7,1.8l-1.2,0.9l3,7.4l1.5-0.2l0.7,1.8
			L74.7,32.1z"/>
		<path class="st1" d="M84.1,19.1c0.2,1,1,0.9,2.9,0.7c3.4-0.3,5-0.3,5.7,2.5c0.7,2.7-1.1,4.4-4.5,5.3c-1.8,0.5-3.5,0.6-4.9,0.3
			l-0.9-3.4l2-0.5l0.9,1.5c0.7,0,1.4-0.1,2.2-0.3c1.8-0.5,2.5-1,2.2-2c-0.3-1-1.1-0.9-3.2-0.7c-3.4,0.3-4.7-0.1-5.4-2.7
			c-0.6-2.4,1.2-4.1,4.5-4.9c1.5-0.4,3-0.6,4.5-0.2l0.9,3.4l-2,0.5L88,17.2c-0.4,0-1.1,0-1.8,0.1C84.3,17.8,83.8,18.2,84.1,19.1z"/>
		<path class="st1" d="M104.4,20.7l-1.6,0.1l-0.3-0.8l-2,0.2l0.2,2.7l1.5,0.3l0.2,1.9l-5.7,0.5l-0.2-2l1.2-0.5l-0.7-8L95.7,15
			l-0.2-2l10.4-0.9l0.3,3.9l-2.1,0.2l-0.5-1.5l-3.6,0.3l0.3,2.9l2-0.2l0.2-0.9l1.6-0.1L104.4,20.7z"/>
		<path class="st1" d="M112.2,22.5l1.4,0.5l-0.1,1.9l-5.6-0.3l0.1-2l1.2-0.3l3.9-10.1l3.7,0.2l2.6,10.5l1.2,0.4l-0.1,2l-5.7-0.3
			l0.1-1.9l1.5-0.3l-0.3-1.3l-3.3-0.2L112.2,22.5z M113.4,19.4l2.1,0.1l-0.8-4.1L113.4,19.4z"/>
		<path class="st1" d="M128.4,27.3c-4.4-1-5.4-3-4.4-7.6l0,0c1.1-4.6,2.9-6,7.3-4.9c1.6,0.4,3.1,0.9,4.4,1.9l-0.8,3.4l-2-0.5
			l-0.1-1.7c-0.5-0.3-1-0.5-1.9-0.7c-2.6-0.6-3.2,0.9-3.7,3.2l0,0c-0.5,2.3-0.6,3.9,2,4.5c0.8,0.2,1.5,0.2,2,0.2l0.8-1.5l2,0.5
			l-0.8,3.4C131.7,27.8,130.1,27.6,128.4,27.3z"/>
		<path class="st1" d="M140.7,28.5l3-7.3l-1.7-0.7l-1,1.2l-1.9-0.8l1.5-3.7l10.8,4.5l-1.5,3.7l-1.9-0.8l0.2-1.6l-1.7-0.7l-3,7.3
			l1.2,0.9l-0.7,1.8l-5.5-2.3l0.7-1.8L140.7,28.5z"/>
		<path class="st1" d="M149.3,35.1l1-1.7l1.4,0.4l4.1-6.8l-1-1.1l1-1.7l5.1,3.1l-1,1.7l-1.4-0.4l-4.1,6.8l1,1.1l-1,1.7L149.3,35.1z"
			/>
		<path class="st1" d="M161.2,35c3-3.7,5.3-4,8.6-1.3s3.4,5,0.4,8.7l0,0c-3,3.7-5.3,4-8.6,1.3S158.2,38.7,161.2,35L161.2,35z
			 M167.8,40.5c1.5-1.8,2.3-3.1,0.4-4.7c-1.9-1.6-3.1-0.5-4.6,1.3l0,0c-1.5,1.8-2.3,3.1-0.4,4.7C165.2,43.4,166.3,42.3,167.8,40.5
			L167.8,40.5z"/>
		<path class="st1" d="M173.3,55.2l3.9-8.6l-4.7,4.2l0.6,1.3l-1.5,1.3l-3.5-4.1l1.5-1.3l1.1,0.7l6.1-5.2l-0.6-1.2l1.5-1.3l3.3,3.8
			l-3.9,8.6l4.7-4.2l-0.6-1.3l1.5-1.3l3.5,4.1l-1.5,1.3l-1.1-0.7l-7.8,6.7L173.3,55.2z"/>
		<path class="st1" d="M190.6,66.2c0.5,1.1,0.1,2.4-0.9,2.9c-1.1,0.5-2.4,0.1-2.9-0.9s-0.1-2.4,0.9-2.9
			C188.7,64.7,190.1,65.1,190.6,66.2z"/>
	</g>
	<g>
		<path class="st1" d="M40.3,170.5c0.7,0.8,0.6,2-0.1,2.6c-0.8,0.7-2,0.6-2.6-0.1c-0.7-0.8-0.6-2,0.1-2.6S39.6,169.8,40.3,170.5z"/>
		<path class="st1" d="M51.5,182l4.4,3.4l-1.2,1.5l-1.2-0.5l-2.6,3.3l-1.6-1.3l0.3-0.6c-1-0.1-1.9-0.4-2.8-1.2
			c-3-2.3-3.1-4.6-0.2-8.4l0,0c2.9-3.8,5.1-4.2,8.7-1.4c1.3,1,2.3,2.1,3,3.5l-2.2,2.8l-1.6-1.3l0.6-1.6c-0.3-0.4-0.8-0.9-1.3-1.3
			c-2.2-1.7-3.3-0.5-4.7,1.3l0,0c-1.4,1.8-2.2,3.3-0.6,4.5c0.8,0.6,1.3,0.8,2,0.9l0.8-1.1l-0.9-1.2L51.5,182z"/>
		<path class="st1" d="M60,189.8c-0.8,1.4-0.8,2.3,0.9,3.3c1.7,1,2.5,0.4,3.2-1l2.7-4.8l-1.1-1l0.9-1.7l5,2.8l-1,1.7l-1.3-0.3
			l-2.6,4.6c-1.8,3.3-3.7,3.9-7.3,1.9c-3.5-2-4-3.9-2.2-7.2l2.6-4.6l-0.9-0.9l1-1.7l5,2.8l-0.9,1.7l-1.4-0.4L60,189.8z"/>
		<path class="st1" d="M71.8,198.4l1.2,0.9l-0.7,1.8l-5.3-2l0.7-1.8l1.2,0.1l6.7-8.5l3.4,1.3L78.5,201l1,0.7l-0.7,1.8l-5.3-2
			l0.7-1.8l1.5,0.2l0.1-1.3l-3.1-1.2L71.8,198.4z M73.9,195.7l2,0.7l0.5-4.1L73.9,195.7z"/>
		<path class="st1" d="M87.8,205.7l0.4-1.9l0.9,0l-0.7-3l-1.6-0.4l-0.6,2.6l1.3,0.7l-0.4,1.9l-5.6-1.2l0.4-1.9l1.3-0.1l1.7-7.8
			l-1.2-0.6l0.4-1.9l6.9,1.5c3,0.6,3.9,2.1,3.4,4.6c-0.4,1.9-1.3,3-3.1,2.9l1.1,3.3l1.2,0.6l-0.4,1.9L87.8,205.7z M90.4,195.8
			l-2.5-0.5l-0.6,2.7l2.5,0.5c1.1,0.2,1.6,0,1.8-1C91.8,196.5,91.6,196.1,90.4,195.8z"/>
		<path class="st1" d="M99.9,205.2l1.4,0.5l-0.1,1.9l-5.6-0.4l0.1-2l1.2-0.3l3.9-10.1l3.7,0.2l2.6,10.5l1.2,0.4l-0.1,2l-5.7-0.4
			l0.1-1.9l1.5-0.3l-0.3-1.3l-3.3-0.2L99.9,205.2z M101.1,202l2.1,0.1l-0.8-4.1L101.1,202z"/>
		<path class="st1" d="M118.8,207.3l-4.7-8.2l0.7,6.2l1.4,0.3l0.2,1.9L111,208l-0.2-2l1.2-0.4l-0.7-8l-1.3-0.2l-0.2-2l5-0.4l4.7,8.2
			L119,197l-1.5-0.3l-0.2-1.9l5.4-0.5l0.2,2l-1.2,0.4l0.9,10.3L118.8,207.3z"/>
		<path class="st1" d="M130.1,203.2l-1.9-7.6l-1.7,0.4l-0.1,1.6l-2,0.5l-0.9-3.8l11.4-2.8l0.9,3.8l-2,0.5l-0.8-1.4l-1.7,0.4l1.9,7.6
			l1.5,0l0.5,1.9l-5.8,1.4l-0.5-1.9L130.1,203.2z"/>
		<path class="st1" d="M143.6,198.9l3.6-1.4l-0.2-1.6l1.9-0.8l1.5,3.7l-10,4l-0.7-1.8l1-0.8l-3-7.4l-1.3,0.1l-0.7-1.8l10-4l1.5,3.7
			l-1.9,0.8l-1-1.3l-3.6,1.4l1,2.5l1.7-0.7l-0.1-0.9l1.5-0.6l1.4,3.6l-1.5,0.6l-0.5-0.7l-1.7,0.7L143.6,198.9z"/>
		<path class="st1" d="M155.8,193.2l3.4-1.9l-0.4-1.5l1.8-1l2,3.4l-9.3,5.3l-1-1.7l0.9-0.9l-4-6.9l-1.3,0.3l-1-1.7l9.3-5.3l2,3.4
			l-1.8,1l-1.1-1.1l-3.4,1.9l1.3,2.3l1.6-0.9l-0.2-0.9l1.4-0.8l1.9,3.4l-1.4,0.8l-0.6-0.6l-1.6,0.9L155.8,193.2z"/>
		<path class="st1" d="M165.1,190.4l-1.2-1.5l0.8-1l-4.9-6.3l-1.2,0.5l-1.2-1.5l4.3-3.3c3.5-2.7,5.8-2.6,8.7,1.2l0,0
			c2.9,3.8,2.5,6-1,8.7L165.1,190.4z M167.1,185.9l1-0.7c2.2-1.7,1.4-2.9-0.1-4.8l0,0c-1.5-1.9-2.5-3-4.7-1.3l-1,0.7L167.1,185.9z"
			/>
		<path class="st1" d="M176.7,170.6c0.7-0.8,1.9-0.8,2.6-0.1s0.8,1.9,0.1,2.6c-0.7,0.8-1.9,0.8-2.6,0.1
			C176.1,172.5,176,171.3,176.7,170.6z"/>
	</g>
</g>
</svg>
