<?xml version="1.0" encoding="utf-8"?>
<!-- Generator: Adobe Illustrator 21.1.0, SVG Export Plug-In . SVG Version: 6.00 Build 0)  -->
<svg version="1.1" id="Layer_1" xmlns="http://www.w3.org/2000/svg" xmlns:xlink="http://www.w3.org/1999/xlink" x="0px" y="0px"
	 viewBox="0 0 215 215" style="enable-background:new 0 0 215 215;" xml:space="preserve">
<style type="text/css">
	.st0{fill:#0C4DA2;}
	.st1{fill:#FFFFFF;}
</style>
<g>
	<g>
		<path class="st0" d="M107.5,211C50.4,211,4,164.6,4,107.5S50.4,4,107.5,4S211,50.4,211,107.5S164.6,211,107.5,211z"/>
		<path class="st0" d="M107.5,4.5c56.8,0,103,46.2,103,103s-46.2,103-103,103s-103-46.2-103-103S50.7,4.5,107.5,4.5 M107.5,3.5
			c-57.4,0-104,46.6-104,104s46.6,104,104,104s104-46.6,104-104S164.9,3.5,107.5,3.5L107.5,3.5z"/>
	</g>
	<path class="st1" d="M79.4,31.5c-5.6,0-10.1,4.5-10.1,10.1v125.1c0,5.6,4.5,10.1,10.1,10.1h57c5.6,0,10.1-4.5,10.1-10.1V41.6
		c0-5.6-4.5-10.1-10.1-10.1H79.4z M101.7,40.9h12.3c0.3,0,0.6,0.3,0.6,0.6v0.7c0,0.3-0.3,0.6-0.6,0.6h-12.3c-0.3,0-0.6-0.3-0.6-0.6
		v-0.7C101.1,41.1,101.4,40.9,101.7,40.9z M76.2,52.4h63.5v103.4H76.2L76.2,52.4z M107.9,160.2c3.4,0,6.2,2.8,6.2,6.2
		c0,3.4-2.8,6.2-6.2,6.2c-3.4,0-6.2-2.8-6.2-6.2C101.7,162.9,104.5,160.2,107.9,160.2z"/>
</g>
</svg>
