<?xml version="1.0" encoding="utf-8"?>
<!-- Generator: Adobe Illustrator 21.1.0, SVG Export Plug-In . SVG Version: 6.00 Build 0)  -->
<svg version="1.1" id="Layer_1" xmlns="http://www.w3.org/2000/svg" xmlns:xlink="http://www.w3.org/1999/xlink" x="0px" y="0px"
	 viewBox="0 0 215 215" style="enable-background:new 0 0 215 215;" xml:space="preserve">
<style type="text/css">
	.st0{fill:#0C4DA2;}
	.st1{fill-rule:evenodd;clip-rule:evenodd;fill:#FFFFFF;}
	.st2{fill-rule:evenodd;clip-rule:evenodd;fill:#0C4F9F;}
	.st3{fill-rule:evenodd;clip-rule:evenodd;fill:#034EA1;}
</style>
<g>
	<g>
		<g>
			<path class="st0" d="M107.5,211C50.4,211,4,164.6,4,107.5S50.4,4,107.5,4S211,50.4,211,107.5S164.6,211,107.5,211z"/>
			<path class="st0" d="M107.5,4.5c56.8,0,103,46.2,103,103s-46.2,103-103,103s-103-46.2-103-103S50.7,4.5,107.5,4.5 M107.5,3.5
				c-57.4,0-104,46.6-104,104s46.6,104,104,104s104-46.6,104-104S164.9,3.5,107.5,3.5L107.5,3.5z"/>
		</g>
	</g>
	<g>
		<g>
			<g>
				<g>
					<rect x="98.5" y="66.9" class="st1" width="89.9" height="7.4"/>
					<rect x="98.5" y="81.7" class="st1" width="89.9" height="7.4"/>
					<rect x="98.5" y="96.6" class="st1" width="89.9" height="7.4"/>
					<rect x="25.8" y="111.4" class="st1" width="162.6" height="7.4"/>
					<rect x="25.8" y="126.2" class="st1" width="162.6" height="7.4"/>
					<rect x="25.8" y="141.1" class="st1" width="162.6" height="7.4"/>
				</g>
				<rect x="98.5" y="59.5" class="st2" width="89.9" height="7.4"/>
				<rect x="98.5" y="74.3" class="st2" width="89.9" height="7.4"/>
				<rect x="98.5" y="89.2" class="st2" width="89.9" height="7.4"/>
				<rect x="98.5" y="104" class="st2" width="89.9" height="7.4"/>
				<rect x="25.8" y="118.8" class="st2" width="162.6" height="7.4"/>
				<rect x="25.8" y="133.7" class="st2" width="162.6" height="7.4"/>
				<rect x="25.8" y="148.5" class="st2" width="162.6" height="7.4"/>
				<g>
					<rect x="25.8" y="59.5" class="st3" width="72.7" height="51.9"/>
				</g>
			</g>
			<polygon class="st1" points="33.1,63.2 32.4,64.9 30.6,64.9 32,65.9 31.2,68.1 33.1,66.7 34.8,68.1 34.2,65.9 35.6,64.9 
				33.7,64.9 			"/>
			<polygon class="st1" points="33.1,73.1 32.4,74.8 30.6,74.8 32,75.8 31.2,77.9 33.1,76.4 34.8,77.9 34.2,75.8 35.6,74.8 
				33.7,74.8 			"/>
			<polygon class="st1" points="33.1,82.9 32.4,84.6 30.6,84.6 32,85.6 31.2,87.7 33.1,86.3 34.8,87.7 34.2,85.6 35.6,84.6 
				33.7,84.6 			"/>
			<polygon class="st1" points="33.1,92.7 32.4,94.4 30.6,94.4 32,95.4 31.2,97.5 33.1,96.1 34.8,97.5 34.2,95.4 35.6,94.4 
				33.7,94.4 			"/>
			<polygon class="st1" points="33.1,102.6 32.4,104.3 30.6,104.3 32,105.3 31.2,107.4 33.1,106 34.8,107.4 34.2,105.3 35.6,104.3 
				33.7,104.3 			"/>
			<polygon class="st1" points="39.1,68.6 38.4,70.3 36.6,70.3 38,71.3 37.3,73.4 39.1,72 40.9,73.4 40.2,71.3 41.7,70.3 39.8,70.3 
							"/>
			<polygon class="st1" points="39.1,78.4 38.4,80.2 36.6,80.2 38,81.1 37.3,83.2 39.1,81.8 40.9,83.2 40.2,81.1 41.7,80.2 
				39.8,80.2 			"/>
			<polygon class="st1" points="39.1,88.2 38.4,89.9 36.6,89.9 38,90.9 37.3,93 39.1,91.7 40.9,93 40.2,90.9 41.7,89.9 39.8,89.9 
							"/>
			<polygon class="st1" points="39.1,98.1 38.4,99.8 36.6,99.8 38,100.7 37.3,102.9 39.1,101.5 40.9,102.9 40.2,100.7 41.7,99.8 
				39.8,99.8 			"/>
			<polygon class="st1" points="44.8,63.2 44.2,64.9 42.3,64.9 43.8,65.9 43,68.1 44.8,66.7 46.6,68.1 45.9,65.9 47.4,64.9 
				45.5,64.9 			"/>
			<polygon class="st1" points="44.8,73.1 44.2,74.8 42.3,74.8 43.8,75.8 43,77.9 44.8,76.4 46.6,77.9 45.9,75.8 47.4,74.8 
				45.5,74.8 			"/>
			<polygon class="st1" points="44.8,82.9 44.2,84.6 42.3,84.6 43.8,85.6 43,87.7 44.8,86.3 46.6,87.7 45.9,85.6 47.4,84.6 
				45.5,84.6 			"/>
			<polygon class="st1" points="44.8,92.7 44.2,94.4 42.3,94.4 43.8,95.4 43,97.5 44.8,96.1 46.6,97.5 45.9,95.4 47.4,94.4 
				45.5,94.4 			"/>
			<polygon class="st1" points="44.8,102.6 44.2,104.3 42.3,104.3 43.8,105.3 43,107.4 44.8,106 46.6,107.4 45.9,105.3 47.4,104.3 
				45.5,104.3 			"/>
			<polygon class="st1" points="50.9,68.6 50.1,70.3 48.3,70.3 49.8,71.3 49,73.4 50.9,72 52.6,73.4 52,71.3 53.4,70.3 51.6,70.3 
							"/>
			<polygon class="st1" points="50.9,78.4 50.1,80.2 48.3,80.2 49.8,81.1 49,83.2 50.9,81.8 52.6,83.2 52,81.1 53.4,80.2 51.6,80.2 
							"/>
			<polygon class="st1" points="50.9,88.2 50.1,89.9 48.3,89.9 49.8,90.9 49,93 50.9,91.7 52.6,93 52,90.9 53.4,89.9 51.6,89.9 			
				"/>
			<polygon class="st1" points="50.9,98.1 50.1,99.8 48.3,99.8 49.8,100.7 49,102.9 50.9,101.5 52.6,102.9 52,100.7 53.4,99.8 
				51.6,99.8 			"/>
			<polygon class="st1" points="56.6,63.2 55.9,64.9 54.1,64.9 55.5,65.9 54.7,68.1 56.6,66.7 58.3,68.1 57.7,65.9 59.2,64.9 
				57.3,64.9 			"/>
			<polygon class="st1" points="56.6,73.1 55.9,74.8 54.1,74.8 55.5,75.8 54.7,77.9 56.6,76.4 58.3,77.9 57.7,75.8 59.2,74.8 
				57.3,74.8 			"/>
			<polygon class="st1" points="56.6,82.9 55.9,84.6 54.1,84.6 55.5,85.6 54.7,87.7 56.6,86.3 58.3,87.7 57.7,85.6 59.2,84.6 
				57.3,84.6 			"/>
			<polygon class="st1" points="56.6,92.7 55.9,94.4 54.1,94.4 55.5,95.4 54.7,97.5 56.6,96.1 58.3,97.5 57.7,95.4 59.2,94.4 
				57.3,94.4 			"/>
			<polygon class="st1" points="56.6,102.6 55.9,104.3 54.1,104.3 55.5,105.3 54.7,107.4 56.6,106 58.3,107.4 57.7,105.3 
				59.2,104.3 57.3,104.3 			"/>
			<polygon class="st1" points="62.6,68.6 61.9,70.3 60.1,70.3 61.5,71.3 60.8,73.4 62.6,72 64.4,73.4 63.8,71.3 65.2,70.3 
				63.3,70.3 			"/>
			<polygon class="st1" points="62.6,78.4 61.9,80.2 60.1,80.2 61.5,81.1 60.8,83.2 62.6,81.8 64.4,83.2 63.8,81.1 65.2,80.2 
				63.3,80.2 			"/>
			<polygon class="st1" points="62.6,88.2 61.9,89.9 60.1,89.9 61.5,90.9 60.8,93 62.6,91.7 64.4,93 63.8,90.9 65.2,89.9 63.3,89.9 
							"/>
			<polygon class="st1" points="62.6,98.1 61.9,99.8 60.1,99.8 61.5,100.7 60.8,102.9 62.6,101.5 64.4,102.9 63.8,100.7 65.2,99.8 
				63.3,99.8 			"/>
			<polygon class="st1" points="68.4,63.2 67.6,64.9 65.9,64.9 67.3,65.9 66.5,68.1 68.3,66.7 70.1,68.1 69.5,65.9 70.9,64.9 
				69,64.9 			"/>
			<polygon class="st1" points="68.4,73.1 67.6,74.8 65.9,74.8 67.3,75.8 66.5,77.9 68.3,76.4 70.1,77.9 69.5,75.8 70.9,74.8 
				69,74.8 			"/>
			<polygon class="st1" points="68.4,82.9 67.6,84.6 65.9,84.6 67.3,85.6 66.5,87.7 68.3,86.3 70.1,87.7 69.5,85.6 70.9,84.6 
				69,84.6 			"/>
			<polygon class="st1" points="68.4,92.7 67.6,94.4 65.9,94.4 67.3,95.4 66.5,97.5 68.3,96.1 70.1,97.5 69.5,95.4 70.9,94.4 
				69,94.4 			"/>
			<polygon class="st1" points="68.4,102.6 67.6,104.3 65.9,104.3 67.3,105.3 66.5,107.4 68.3,106 70.1,107.4 69.5,105.3 
				70.9,104.3 69,104.3 			"/>
			<polygon class="st1" points="74.4,68.6 73.6,70.3 71.9,70.3 73.2,71.3 72.5,73.4 74.4,72 76.1,73.4 75.5,71.3 77,70.3 75.1,70.3 
							"/>
			<polygon class="st1" points="74.4,78.4 73.6,80.2 71.9,80.2 73.2,81.1 72.5,83.2 74.4,81.8 76.1,83.2 75.5,81.1 77,80.2 
				75.1,80.2 			"/>
			<polygon class="st1" points="74.4,88.2 73.6,89.9 71.9,89.9 73.2,90.9 72.5,93 74.4,91.7 76.1,93 75.5,90.9 77,89.9 75.1,89.9 
							"/>
			<polygon class="st1" points="74.4,98.1 73.6,99.8 71.9,99.8 73.2,100.7 72.5,102.9 74.4,101.5 76.1,102.9 75.5,100.7 77,99.8 
				75.1,99.8 			"/>
			<polygon class="st1" points="80.1,63.2 79.4,64.9 77.6,64.9 78.9,65.9 78.2,68.1 80.1,66.7 81.8,68.1 81.2,65.9 82.6,64.9 
				80.8,64.9 			"/>
			<polygon class="st1" points="80.1,73.1 79.4,74.8 77.6,74.8 78.9,75.8 78.2,77.9 80.1,76.4 81.8,77.9 81.2,75.8 82.6,74.8 
				80.8,74.8 			"/>
			<polygon class="st1" points="80.1,82.9 79.4,84.6 77.6,84.6 78.9,85.6 78.2,87.7 80.1,86.3 81.8,87.7 81.2,85.6 82.6,84.6 
				80.8,84.6 			"/>
			<polygon class="st1" points="80.1,92.7 79.4,94.4 77.6,94.4 78.9,95.4 78.2,97.5 80.1,96.1 81.8,97.5 81.2,95.4 82.6,94.4 
				80.8,94.4 			"/>
			<polygon class="st1" points="80.1,102.6 79.4,104.3 77.6,104.3 78.9,105.3 78.2,107.4 80.1,106 81.8,107.4 81.2,105.3 
				82.6,104.3 80.8,104.3 			"/>
			<polygon class="st1" points="86.1,68.6 85.4,70.3 83.6,70.3 85,71.3 84.3,73.4 86.1,72 87.8,73.4 87.2,71.3 88.7,70.3 86.8,70.3 
							"/>
			<polygon class="st1" points="86.1,78.4 85.4,80.2 83.6,80.2 85,81.1 84.3,83.2 86.1,81.8 87.8,83.2 87.2,81.1 88.7,80.2 
				86.8,80.2 			"/>
			<polygon class="st1" points="86.1,88.2 85.4,89.9 83.6,89.9 85,90.9 84.3,93 86.1,91.7 87.8,93 87.2,90.9 88.7,89.9 86.8,89.9 
							"/>
			<polygon class="st1" points="86.1,98.1 85.4,99.8 83.6,99.8 85,100.7 84.3,102.9 86.1,101.5 87.8,102.9 87.2,100.7 88.7,99.8 
				86.8,99.8 			"/>
			<polygon class="st1" points="91.8,63.2 91.1,64.9 89.3,64.9 90.7,65.9 90,68.1 91.8,66.7 93.6,68.1 92.9,65.9 94.4,64.9 
				92.6,64.9 			"/>
			<polygon class="st1" points="91.8,73.1 91.1,74.8 89.3,74.8 90.7,75.8 90,77.9 91.8,76.4 93.6,77.9 92.9,75.8 94.4,74.8 
				92.6,74.8 			"/>
			<polygon class="st1" points="91.8,82.9 91.1,84.6 89.3,84.6 90.7,85.6 90,87.7 91.8,86.3 93.6,87.7 92.9,85.6 94.4,84.6 
				92.6,84.6 			"/>
			<polygon class="st1" points="91.8,92.7 91.1,94.4 89.3,94.4 90.7,95.4 90,97.5 91.8,96.1 93.6,97.5 92.9,95.4 94.4,94.4 
				92.6,94.4 			"/>
			<polygon class="st1" points="91.8,102.6 91.1,104.3 89.3,104.3 90.7,105.3 90,107.4 91.8,106 93.6,107.4 92.9,105.3 94.4,104.3 
				92.6,104.3 			"/>
		</g>
	</g>
</g>
</svg>
